Coordinates
version=1
nRows=16
nColumns=42
inDegrees=yes

Units are S.I. units (second, meters, Newtons, ...)
If the header above contains a line with 'inDegrees', this indicates whether rotational values are in degrees (yes) or radians (no).

endheader
time	pelvis_tilt	pelvis_list	pelvis_rotation	pelvis_tx	pelvis_ty	pelvis_tz	hip_flexion_r	hip_adduction_r	hip_rotation_r	knee_angle_r	knee_adduction_r	knee_angle_r_beta	ankle_angle_r	subtalar_angle_r	mtp_angle_r	hip_flexion_l	hip_adduction_l	hip_rotation_l	knee_angle_l	knee_adduction_l	knee_angle_l_beta	ankle_angle_l	subtalar_angle_l	mtp_angle_l	lumbar_extension	lumbar_bending	lumbar_rotation	arm_flex_r	arm_add_r	arm_rot_r	elbow_flex_r	pro_sup_r	wrist_flex_r	wrist_dev_r	arm_flex_l	arm_add_l	arm_rot_l	elbow_flex_l	pro_sup_l	wrist_flex_l	wrist_dev_l
      0.00000000	     -2.15114049	     -1.81108639	      2.36070816	     -2.01452090	      0.90235694	     -0.18593893	     16.41220137	     -6.65282995	      3.00865630	     53.23559202	     16.54835194	      0.92913636	      0.00000000	      3.22135626	     -9.46683276	      0.62203463	     -6.47550726	     -4.84808092	      4.31617066	     18.77682717	      0.07533139	      8.09007458	      5.38980682	     -9.46683276	     -9.83387331	      1.41750678	     -1.07007601	     -6.89642477	    -14.12420368	     -5.95507359	     17.78129512	     90.00000001	      0.00000000	      0.00000000	     -2.87945401	    -13.82502883	      3.90423639	     23.64619352	     90.00000001	      0.00000000	      0.00000000
      0.01000000	     -1.44066935	     -1.78173204	      3.20498306	     -2.00417044	      0.90266508	     -0.18830462	     16.37696545	     -7.14511616	     -4.41313013	     45.95365396	     12.42588697	      0.80204256	     10.90373651	    -10.72745196	     -9.28033744	     -0.90715941	     -6.23709335	     -4.86728827	      4.18665436	     18.49766749	      0.07307090	      8.75555907	      6.61880481	     -9.28033744	    -10.47370921	      1.63343698	     -1.64831636	     -6.97128421	    -14.09977508	     -6.44510446	     17.72979577	     90.00000001	      0.00000000	      0.00000000	     -2.41937959	    -14.04593435	      4.36758215	     24.28809857	     90.00000001	      0.00000000	      0.00000000
      0.02000000	     -1.30015263	     -1.83935121	      3.77016699	     -1.99506083	      0.90229008	     -0.18981864	     16.95533327	     -7.13848975	     -5.32238930	     43.74108111	     12.21487851	      0.76342588	     11.06558891	    -11.15144553	     -9.22976995	     -1.68436489	     -6.17740339	     -4.60678870	      4.08693479	     18.35648697	      0.07133047	      9.33882140	      7.10720422	     -9.22976995	    -10.61891638	      1.83880033	     -1.99963336	     -6.92504945	    -14.05040400	     -6.63472633	     17.55941972	     90.00000001	      0.00000000	      0.00000000	     -1.89871696	    -14.26874405	      4.63704215	     24.85208303	     90.00000001	      0.00000000	      0.00000000
      0.03000000	     -0.96700104	     -2.06042291	      4.21716713	     -1.98575882	      0.90207882	     -0.19099456	     17.21985938	     -6.81312529	     -6.18954145	     41.28049957	     11.88455815	      0.72048063	     10.77208948	    -11.72573878	     -9.14838733	     -2.71681953	     -6.39156648	     -4.53959816	      3.96970280	     18.32501905	      0.06928438	      9.81953284	      7.45035527	     -9.14838733	    -10.98157994	      2.22715791	     -2.15536339	     -6.90377902	    -14.00724778	     -7.03695412	     17.49952885	     90.00000001	      0.00000000	      0.00000000	     -1.33915843	    -14.45926815	      4.99925816	     25.40048693	     90.00000001	      0.00000000	      0.00000000
      0.04000000	     -1.18706557	     -1.80562775	      4.36662119	     -1.97686270	      0.90088390	     -0.19206620	     18.38505322	     -7.11085874	     -7.00318107	     39.38837294	     11.49275306	      0.68745679	     10.67414673	    -11.46089121	     -9.12935864	     -3.06137179	     -5.94648093	     -4.79289118	      4.15103789	     18.15963286	      0.07244928	     10.14692246	      7.47480878	     -9.12935864	    -10.78006666	      2.01960261	     -2.14556097	     -7.02392385	    -13.95333419	     -7.04687353	     17.58374276	     90.00000001	      0.00000000	      0.00000000	     -0.83231191	    -14.64141946	      5.03603992	     25.87329090	     90.00000001	      0.00000000	      0.00000000
      0.05000000	     -1.23234510	     -1.89819078	      4.78880087	     -1.96805172	      0.90002548	     -0.19341134	     18.99330463	     -7.02154515	     -7.67200117	     36.75269275	     11.37902563	      0.64145550	     10.23541944	    -11.03177142	     -9.09944615	     -3.52307679	     -5.81953462	     -4.32693931	      4.16832762	     17.78542077	      0.07275104	     10.92769189	      7.74840218	     -9.09944615	    -10.77810200	      2.28460901	     -2.44739027	     -6.89137113	    -13.92886482	     -7.21320768	     17.43689352	     90.00000001	      0.00000000	      0.00000000	     -0.38838613	    -14.79894681	      5.34223156	     26.39135072	     90.00000001	      0.00000000	      0.00000000
      0.06000000	     -1.33116734	     -1.78107344	      4.98411172	     -1.95907959	      0.89885651	     -0.19425973	     19.76750199	     -7.10380739	     -8.50316699	     34.38678098	     11.05836373	      0.60016255	      9.71967072	    -10.59648150	     -9.07577738	     -3.98198330	     -5.58153239	     -4.31639535	      4.29223045	     17.66957269	      0.07491355	     11.44074000	      7.77299021	     -9.07577738	    -10.74384712	      2.24036005	     -2.51097159	     -6.92380165	    -13.85754937	     -7.33539409	     17.43144914	     90.00000001	      0.00000000	      0.00000000	      0.05043251	    -15.00950469	      5.51829018	     26.84101590	     90.00000001	      0.00000000	      0.00000000
      0.07000000	     -1.28365684	     -1.90888540	      5.33842746	     -1.95011203	      0.89785688	     -0.19526194	     20.08332602	     -6.94652486	     -9.13627133	     31.43142758	     11.04538023	      0.54858190	      8.76068727	     -9.87830504	     -9.04419460	     -4.53405373	     -5.67406362	     -3.85702412	      4.38593489	     17.63066461	      0.07654900	     12.19466438	      7.79772776	     -9.04419460	    -10.85749426	      2.52324408	     -2.65199421	     -6.85073932	    -13.81211557	     -7.58669556	     17.27323529	     90.00000001	      0.00000000	      0.00000000	      0.52340991	    -15.18199938	      5.86636819	     27.30703199	     90.00000001	      0.00000000	      0.00000000
      0.08000000	     -0.86654288	     -2.25292772	      5.62946381	     -1.94072916	      0.89724609	     -0.19566537	     19.79650300	     -6.32142048	     -9.64491432	     28.07014060	     10.92637260	      0.48991637	      7.50608936	    -10.21685202	     -8.92162888	     -5.66409638	     -6.24132711	     -3.36341468	      4.14722988	     17.94846275	      0.07238282	     12.61781858	      7.25286081	     -8.92162888	    -11.33842594	      3.03698912	     -2.67447097	     -6.75396752	    -13.71645357	     -8.18313389	     17.18523089	     90.00000001	      0.00000000	      0.00000000	      1.03922621	    -15.37491259	      6.25910279	     27.69131651	     90.00000001	      0.00000000	      0.00000000
      0.09000000	     -0.94630422	     -2.22874266	      5.81206792	     -1.93167148	      0.89587023	     -0.19636787	     20.18080493	     -6.24084238	    -10.19451486	     25.03483097	     10.80554555	      0.43694023	      6.42648562	     -9.39022440	     -8.84829659	     -6.10602266	     -6.15064429	     -3.05795773	      4.28356834	     17.88693622	      0.07476237	     13.16067556	      6.95476417	     -8.84829659	    -11.32791148	      3.12876065	     -2.74335374	     -6.72410221	    -13.64863336	     -8.31682603	     17.12368021	     90.00000001	      0.00000000	      0.00000000	      1.43465243	    -15.54504930	      6.47938651	     28.07040110	     90.00000001	      0.00000000	      0.00000000
      0.10000000	     -1.13555989	     -2.09761642	      6.00626957	     -1.92263088	      0.89426071	     -0.19713148	     20.60666874	     -6.32641783	    -10.63278415	     21.94747862	     10.79398436	      0.38305576	      5.46493529	     -8.32658001	     -8.80077970	     -6.40354601	     -5.93224300	     -2.80178172	      4.49281259	     17.81772786	      0.07841437	     13.78905818	      6.68207614	     -8.80077970	    -11.20876590	      3.10701802	     -2.86683495	     -6.69840735	    -13.56172348	     -8.39186270	     17.03363915	     90.00000001	      0.00000000	      0.00000000	      1.81089830	    -15.69755978	      6.67219784	     28.38654701	     90.00000001	      0.00000000	      0.00000000
      0.11000000	     -1.16429813	     -2.07392422	      6.11920641	     -1.91319960	      0.89277508	     -0.19754180	     20.71738670	     -6.17114199	    -11.00771326	     18.68511387	     10.73166242	      0.32611676	      4.18616284	     -7.61896136	     -8.72918242	     -6.98610365	     -5.89568533	     -2.43769260	      4.53662283	     17.80819692	      0.07917901	     14.18051885	      6.32541597	     -8.72918242	    -11.23119414	      3.18350640	     -2.86311210	     -6.72759319	    -13.48044261	     -8.55672817	     17.04486107	     90.00000001	      0.00000000	      0.00000000	      2.11826008	    -15.89181675	      6.84216271	     28.73582865	     90.00000001	      0.00000000	      0.00000000
      0.12000000	     -1.61021591	     -1.74027442	      6.19425386	     -1.90392727	      0.89065027	     -0.19831009	     21.43563548	     -6.51822397	    -11.52150687	     15.97079748	     10.71964734	      0.27874300	      3.26639490	     -6.28871539	     -8.70800500	     -7.04778081	     -5.34682021	     -2.28682005	      4.80861068	     17.58199137	      0.08392609	     14.68204688	      6.22427999	     -8.70800500	    -10.81891128	      2.91614010	     -2.95544335	     -6.80795838	    -13.40091507	     -8.55146882	     17.07363939	     90.00000001	      0.00000000	      0.00000000	      2.32767282	    -16.04169665	      6.94817282	     29.03237022	     90.00000001	      0.00000000	      0.00000000
      0.13000000	     -1.43868897	     -1.73708977	      6.44538699	     -1.89404045	      0.88926849	     -0.19871815	     21.04845462	     -6.31616648	    -11.74309294	     12.56416264	     10.69377284	      0.21928601	      2.58411581	     -5.46600270	     -8.65631825	     -7.87950864	     -5.50301962	     -1.95668222	      4.86075705	     17.78179554	      0.08483621	     15.09112811	      5.89797861	     -8.65631825	    -11.03078792	      3.06179925	     -3.09038044	     -6.79948251	    -13.29498870	     -8.68762856	     16.93356258	     90.00000001	      0.00000000	      0.00000000	      2.60717468	    -16.22843721	      7.15943026	     29.27707531	     90.00000001	      0.00000000	      0.00000000
      0.14000000	     -1.75335051	     -1.41789901	      6.57808023	     -1.88433845	      0.88721505	     -0.19926397	     21.45563064	     -6.61313667	    -12.06195853	      9.98591690	     10.74031302	      0.17428713	      2.03593073	     -4.38316967	     -8.63021201	     -8.16521158	     -5.11787362	     -1.72224660	      5.02444921	     17.73487719	      0.08769318	     15.48789911	      5.79366426	     -8.63021201	    -10.73689444	      2.81449316	     -3.22904950	     -6.88888093	    -13.17396336	     -8.69756701	     16.91392414	     90.00000001	      0.00000000	      0.00000000	      2.76842327	    -16.41057229	      7.25718645	     29.48245189	     90.00000001	      0.00000000	      0.00000000
      0.15000000	     -1.72640978	     -1.28746788	      6.77518587	     -1.87412337	      0.88554732	     -0.19973954	     21.31312774	     -6.63011547	    -12.25358480	      7.38044901	     10.76559201	      0.12881314	      1.70118689	     -3.66839026	     -8.58500958	     -8.91589838	     -5.07982078	     -1.50652714	      5.03863278	     17.82505520	      0.08794073	     15.75196125	      5.58928088	     -8.58500958	    -10.76499423	      2.82858115	     -3.38197908	     -6.95839866	    -13.07291884	     -8.76292708	     16.84739479	     90.00000001	      0.00000000	      0.00000000	      2.89691545	    -16.56869360	      7.40635085	     29.68377150	     90.00000001	      0.00000000	      0.00000000
